Patient4_TMGait_0pt2_03_right_07_EMG.mot
version=1
nRows=36
nColumns=33
inDegrees=no
endheader
time	1LAddLong	2LGlutMax	3LGlutMed	4LIliopsoas	5LSemiMemb	6LBicFemLong	7LRecFem	8LVastMed	9LVastLat	10LGasMed	11LTibAnt	12lTibPost	13LPeroneusLong	14LSol	15LExtDigLong	16LFlexDigLong	17RAddLong	18RGlutMax	19RGlutMed	20RIliopsoas	21RSemiMemb	22RBicFemLong	23RRecFem	24RVastMed	25RVastLat	26RGasMed	27RTibAnt	28RTibPost	29RPeroneusLong	30RSol	31RExtDigLong	32RFlexDigLong
17.143	0.009766	-0.23972	-0.095215	0.05127	0.018616	0.02182	0.065002	0.005341	-0.25177	-0.009155	-0.053864	-0.005188	-0.14206	0.043335	-0.010071	-0.044556	0.003357	-0.038605	-0.63492	0.30151	0.10086	0.008087	-0.21118	-0.002289	0.041809	-0.016022	-0.046997	-0.005188	0.14053	0.11749	-0.000916	-0.008698
17.144	0.008545	-0.29022	-0.1239	0.043488	0.023804	0.006714	0.06012	0.00351	-0.21622	0.00351	-0.010529	-0.005035	-0.13565	0.025024	-0.016174	-0.003967	-0.001221	-0.048218	-0.87265	0.065002	0.10452	0.035248	-0.16144	-0.013885	0.019226	-0.018768	-0.050507	-0.003662	0.075073	0.051117	0.002441	-0.007477
17.145	0.012817	-0.29739	-0.25207	0.005341	0.02121	0.005341	0.080109	0.001678	-0.16937	0.03006	-0.002899	-0.001678	-0.018768	-0.016632	-0.022125	0.001373	0.006561	0.031281	-0.11673	-0.040131	0.10162	0.018921	-0.17059	-0.036774	0.023804	-0.020599	-0.027313	-0.00351	-0.12405	-0.029755	0.001678	-0.000916
17.146	0.011444	-0.38605	-0.3537	-0.010376	0.009918	0.008087	0.097198	0.005341	-0.10605	0.059662	-0.002747	-0.006866	-0.05249	-0.063934	-0.043335	0.017242	0.029602	0.061646	0.033112	-0.046082	0.086212	0.00946	-0.1683	-0.067902	0.002594	-0.012665	0.10162	-0.008392	-0.13534	-0.014191	0	-0.004883
17.147	0.006561	-0.19699	-0.044556	-0.009613	0.002289	0	0.036163	0.00946	-0.098267	0.058899	0.010681	-0.008087	-0.20477	-0.047455	-0.024719	0.035706	0.027466	0.10803	1.2968	-0.058136	0.072021	-0.027161	-0.17258	-0.050201	0.008392	-0.016022	0.17731	0.001984	-0.008392	-0.015869	-0.002594	-0.001831
17.148	0.007782	-0.13138	-0.011139	0.030518	0.003052	-0.010376	-0.039978	0.016785	-0.050812	0.054016	0.032959	-0.011902	-0.25162	0.06897	0.016174	0.037689	0.023041	0.046997	1.129	-0.081024	0.066376	-0.03952	-0.14053	-0.056915	0.00351	-0.019226	0.62653	-0.005646	-0.16113	-0.03479	-0.003815	-0.007782
17.149	0.001526	-0.19211	-0.058594	0.050049	0.005493	-0.009155	-0.05661	0.005493	-0.006256	-0.004578	-0.007477	0.002289	-0.19043	0.15915	0.10437	0.043182	0.000305	-0.073547	0.062714	-0.1886	0.067596	-0.024109	-0.14816	-0.050201	-0.006409	-0.024414	0.93979	-0.002441	-0.27557	-0.031281	-0.001831	-0.00824
17.15	-0.012665	-0.095978	0.019531	0.036011	0.000458	0.016479	-0.1033	0.016937	0.13092	-0.05661	-0.023193	-0.007782	0.33325	0.093994	0.056	0.027924	-0.005798	-0.087585	-0.60257	-0.3685	0.066223	-0.020599	-0.14358	-0.058441	-0.005493	-0.021667	0.67551	-0.003204	-0.29587	-0.043488	-0.001068	-0.002594
17.151	-0.010529	-0.010529	0.15335	0.028381	0.007172	0.025482	-0.093384	0.005035	0.20645	-0.076752	-0.026398	0.006256	1.0217	-0.016479	0.021057	0.052948	0.002747	-0.070953	-0.36575	-0.39215	0.058899	-0.029755	-0.12299	-0.054779	-0.010376	-0.011292	-0.26947	-0.007935	-0.15762	-0.21194	-0.000916	-0.007324
17.152	-0.005798	-0.007782	0.14557	0.038452	0.011749	0.031128	-0.12146	0.00824	0.1004	-0.091248	0.005798	-0.008392	-0.20615	-0.16159	-0.077515	0.038452	0.028992	-0.056458	0.19791	-0.26932	0.015106	-0.038147	-0.1062	-0.050507	-0.000916	-0.013885	-0.79971	-0.008698	0.005798	-0.25009	-0.000458	-0.003967
17.153	-0.003357	-0.030365	0.046539	0.043488	0.028992	0.025177	-0.18478	0.010376	0.039063	-0.076904	0.023346	-0.003357	-0.24826	-0.05249	-0.023651	0.036926	0.079651	-0.027618	0.1297	-0.16525	-0.003662	-0.035706	-0.074921	-0.066681	-0.009003	-0.013123	-0.80536	-0.006256	0.25406	-0.24353	0.003357	-0.000763
17.154	-0.008392	-0.11734	-0.10376	0.018616	0.011139	0.016785	-0.18707	0.012665	-0.04364	-0.075226	-0.016174	-0.006714	0.13016	0.043335	-0.058899	0.052795	0.10605	-0.066376	-0.079346	0.11765	0.016785	0.011749	-0.10162	-0.070953	0.000153	0.001984	-0.29877	-0.003052	0.16769	-0.29511	0.001221	-0.005493
17.155	-0.025635	-0.13977	-0.11414	-0.006714	-0.020905	0.026093	-0.10529	0.019226	-0.12497	-0.0383	-0.041962	0.002441	0.23285	0.10635	-0.073547	0.044403	0.12604	-0.10773	-0.093384	0.36057	0.20264	0.067596	-0.099487	-0.027008	0.004578	0.001526	-0.23972	-0.00412	-0.025635	-0.23453	-0.000153	-0.014496
17.156	-0.019073	-0.1741	-0.11124	-0.018311	-0.058441	-0.001526	-0.073242	0.014343	-0.18295	-0.033875	-0.014038	-0.013275	0.19302	0.16159	0.051422	0.0354	0.15503	-0.090179	-0.045929	0.30975	0.21362	0.022888	-0.091248	-0.057678	0.014801	-0.003967	-0.14496	-0.007782	-0.103	-0.029297	-0.001678	-0.020294
17.157	0.001068	-0.15884	0.23865	0.014343	-0.07309	-0.035858	0.006104	-0.006561	-0.1799	0.000916	0.010681	-0.008087	0.18509	0.048523	-0.017548	0.03479	0.10391	-0.15427	-0.45898	0.34409	0.15671	-0.052795	-0.12314	-0.070953	0.009766	-0.005341	-0.12131	-0.007172	-0.1033	0.1088	0.001831	-0.022278
17.158	0.011597	-0.15671	0.056915	0.009308	-0.029602	-0.020294	0.060425	-0.022736	-0.10223	0.04715	0.027924	-0.00473	-0.43518	0.04715	0.038605	0.009613	0.035248	-0.08606	-0.84854	0.28976	0.03952	-0.042877	-0.1059	-0.10056	0.002136	-0.00351	0.12238	-0.005798	-0.15137	0.049133	0.004883	-0.015411
17.159	0.014801	-0.11688	-0.031281	0.02655	0.048523	0.011597	0.10025	-0.026093	0.028229	0.046692	0.002747	0.005341	0.2948	0.041962	0.017242	0.028229	-0.033569	-0.067596	-0.54886	0.17914	-0.13794	0.014038	-0.085144	-0.1297	-0.006256	-0.001373	0.26489	-0.008392	0.078735	0.07843	0.001373	-0.023499
17.16	0.02655	-0.071259	-0.060883	0.042267	0.082855	0.056152	0.098877	-0.0177	0.063324	0.073395	0.012512	0.002136	-0.014801	-0.20142	-0.057831	0.01358	0.004883	0.010223	0.093994	0.076141	-0.091248	0.025024	-0.048523	-0.14877	-0.011444	0.00473	0.083313	-0.009918	0.45273	0.030518	0.005646	-0.016937
17.161	0.010223	-0.076599	-0.028381	0.023041	0.07019	0.06958	0.058746	-0.008392	0.016632	0.055695	0.039978	0.010071	-0.5571	-0.15869	-0.025635	0.043488	-0.011749	0.003967	-0.20142	0.025177	-0.069275	0.076599	-0.078583	-0.12116	0.007172	-0.001221	0.046997	-0.00351	0.35996	0.023041	0.003967	-0.016327
17.162	0.005798	-0.14542	-0.039063	0.019531	0.032501	0.075073	0.031281	0.007172	0.037384	0.016479	0.000763	0.00473	0.14557	-0.011139	0.088196	0.023041	0.068054	-0.074158	-0.66498	-0.033112	-0.000458	0.090942	-0.057983	-0.10544	0.017242	-0.007019	0.058289	-0.005798	0.12466	0.030975	0.003204	-0.012207
17.163	-0.005493	-0.097198	-0.04776	0.007782	-0.007019	0.1001	0.039825	0.025024	0.006714	-0.044403	-0.031128	0.006256	-0.3508	0.026855	0.073547	0.044708	0.12009	-0.044098	-0.66269	-0.063171	-0.07431	0.075531	-0.094147	-0.093842	0.013733	-0.002594	0.15381	-0.004425	0.21042	-0.011292	0.007477	-0.00824
17.164	-0.015106	-0.06424	-0.041504	0.020142	0.04303	0.10483	0.058289	0.045471	0.029449	-0.057373	-0.038452	0.002747	0.001526	-0.036163	-0.04303	0.05188	0.10559	0.009155	-0.95093	-0.068207	-0.14832	0.072174	-0.081787	-0.068054	0.00946	-0.016937	-0.41107	0.000763	0.05722	0.012207	0.008392	-0.014954
17.165	-0.011444	-0.026093	0.18723	0.028381	0.048218	0.10269	0.033417	0.04425	0.064697	-0.041199	0.010529	0.001373	0.17822	0.016479	-0.059052	0.037689	0.042572	-0.023041	-0.12222	-0.093536	-0.16174	0.074158	-0.049591	-0.029907	0.024872	-0.022278	-0.18402	-0.003357	0.083466	0.054016	0.007324	-0.023041
17.166	-0.006409	-0.023956	0.28214	0.018311	-0.032196	0.074921	-0.000305	0.03006	0.071411	-0.088959	0.005951	0.002289	0.17975	0.040436	-0.016022	0.015411	-0.046539	-0.071259	0.17059	-0.054321	0.078583	0.071716	-0.024872	0.019226	0.031433	-0.028687	0.33569	0.000305	-0.11475	0.047607	0.006714	-0.022278
17.167	0.009613	-0.001678	0.18387	0.005646	-0.011139	0.028076	-0.076599	0.008698	0.062561	-0.085449	0.010986	0.00473	-0.17425	0.054016	0.016479	0.023193	-0.10437	0.064545	0.30777	-0.12833	0.36987	0.007324	-0.10025	0.054626	0.032959	-0.025177	0.17914	-0.003815	-0.5275	-0.018158	0.004883	-0.024719
17.168	0.017242	0.006256	0.14755	-0.00473	0.027618	0.0737	-0.10483	-0.01709	0.083618	-0.027771	-0.005341	-0.000916	0.059662	-0.012817	0.000763	0.009155	-0.16495	0.14801	0.27054	-0.12756	0.2858	-0.009155	-0.16205	0.072479	0.04715	-0.023193	-0.15488	-0.00412	-0.46783	0	0.010071	-0.027161
17.169	0.014343	-0.008698	0.18021	0.023041	0.040894	-0.054474	-0.041199	-0.039825	0.11246	0.070801	-0.018005	0.010376	0.10223	-0.10864	0.007172	0.022888	-0.16663	0.093842	-0.12466	-0.071106	0.15091	0.060425	-0.11078	0.045471	0.042114	-0.02655	-0.02121	-0.002747	-0.20187	0.020142	0.00946	-0.022583
17.17	-0.003357	0.049591	0.24445	0.020294	-0.007629	-0.12772	0.032959	-0.025482	0.12131	0.12283	0.000153	0.003815	0.2536	-0.018921	0.020905	0.01297	-0.15762	0.015259	0.60562	-0.095825	0.12772	0.11841	-0.12665	0.082092	0.022125	-0.019989	0.086212	-0.002594	-0.081787	-0.003815	0.006714	-0.024261
17.171	-0.01358	-0.04837	-0.033875	0.002441	-0.032349	-0.11429	0.037079	-0.016785	0.087738	0.12833	0.003204	0.000153	-0.089264	0.098419	0.038605	0.024872	-0.14008	-0.056915	1.2503	-0.11612	0.10849	0.12466	-0.10284	0.075531	0.032349	-0.005798	0.35355	-0.002441	0.059052	-0.11444	0.006561	-0.014191
17.172	-0.023346	-0.20401	-0.16647	0.016632	-0.005798	-0.0383	0.023193	0.000916	-0.007782	0.1889	0.016785	0.012207	-0.26474	0.10956	0.044708	0.025177	-0.10422	-0.17532	0.35355	0.0177	0.11246	0.12161	-0.14542	0.063477	0.023804	-0.000458	-0.048676	-0.000916	0.039673	-0.23621	0.010834	-0.011597
17.173	-0.028229	-0.21042	-0.040283	0.024414	-0.023041	-0.019989	0.004425	-0.000153	-0.1001	0.16068	0.028534	0.005951	-0.32898	-0.040131	0.024719	0.010986	-0.11002	-0.16571	0.05188	0.06012	0.099182	0.089874	-0.17838	0.04837	0.035858	-0.009155	-0.32745	0.000458	-0.095367	-0.20371	0.009613	-0.010986
17.174	-0.020142	-0.22507	-0.088501	0.030823	-0.003662	0.000458	-0.048523	-0.006561	-0.15717	-0.062561	0.018311	0.004272	-0.35584	-0.19867	-0.016327	0.014496	-0.078125	-0.11917	0.006256	0.029297	0.096741	0.065155	-0.13931	0.042114	0.027161	-0.030823	0.19928	-0.003052	-0.26154	-0.072632	0.008087	-0.010681
17.175	0.00412	-0.1564	-0.10956	0.033264	-0.047302	0.030212	-0.11948	0.010986	-0.13107	-0.12787	-0.01358	-0.000458	-0.42358	-0.11643	-0.028076	-0.023956	-0.060577	-0.082245	0.066833	0.044861	0.11505	0.008392	-0.11368	-0.016632	0.01236	-0.028381	-0.11383	-0.003662	-0.19287	-0.089417	0.013275	-0.002747
17.176	0.009918	-0.13825	-0.059204	0.054321	-0.081787	0.014038	-0.1767	0.003967	-0.10269	-0.15991	-0.02243	-0.005188	-0.17075	0.046692	-0.006561	-0.002899	-0.040283	-0.003204	-0.044098	0.054016	0.12192	-0.003662	-0.072174	-0.036469	0.02243	-0.014496	-0.3186	-0.002136	0.044098	-0.1294	0.014954	0.014496
17.177	0.022278	-0.21774	-0.11581	0.019684	0.029755	0.031891	-0.093842	-0.003662	-0.072937	-0.20309	0.006104	-0.005341	-0.083466	0.08728	0.075073	0.061951	-0.011597	-0.044556	-0.10117	0.041809	0.12299	-0.016479	-0.082397	0.002136	0.022736	-0.00946	-0.30975	-0.003052	0.18448	-0.083923	0.013123	0.003052
17.178	0.010834	-0.224	-0.11246	0.011444	0.09491	0.038452	-0.061035	0.001373	-0.020599	-0.26184	-0.001831	0.003052	-0.009308	-0.042877	0.015564	-0.043335	0.012817	-0.071716	-0.28046	0.1091	0.11704	0.019684	-0.045471	0.027008	0.026093	-0.011444	-0.23865	-0.002747	0.20706	0.045166	0.021515	0.010071
